<svg xmlns="http://www.w3.org/2000/svg" width="683" height="736" viewBox="0 0 683 736"><g transform="translate(-242 -1558)" opacity="0.39"><circle cx="4" cy="4" r="4" transform="translate(242 1922)" fill="#4d4d4d"/><circle cx="4" cy="4" r="4" transform="translate(242 1714)" fill="#4d4d4d"/><circle cx="4" cy="4" r="4" transform="translate(242 2130)" fill="#4d4d4d"/><circle cx="4" cy="4" r="4" transform="translate(242 1610)" fill="#4d4d4d"/><circle cx="4" cy="4" r="4" transform="translate(242 2026)" fill="#4d4d4d"/><circle cx="4" cy="4" r="4" transform="translate(242 1818)" fill="#4d4d4d"/><circle cx="4" cy="4" r="4" transform="translate(242 2234)" fill="#4d4d4d"/><circle cx="4" cy="4" r="4" transform="translate(242 1558)" fill="#4d4d4d"/><circle cx="4" cy="4" r="4" transform="translate(242 1974)" fill="#4d4d4d"/><circle cx="4" cy="4" r="4" transform="translate(242 1766)" fill="#4d4d4d"/><circle cx="4" cy="4" r="4" transform="translate(242 2182)" fill="#4d4d4d"/><circle cx="4" cy="4" r="4" transform="translate(242 1662)" fill="#4d4d4d"/><circle cx="4" cy="4" r="4" transform="translate(242 2078)" fill="#4d4d4d"/><circle cx="4" cy="4" r="4" transform="translate(242 1870)" fill="#4d4d4d"/><circle cx="4" cy="4" r="4" transform="translate(242 2286)" fill="#4d4d4d"/><circle cx="4" cy="4" r="4" transform="translate(602 1922)" fill="#4d4d4d"/><circle cx="4" cy="4" r="4" transform="translate(602 1714)" fill="#4d4d4d"/><circle cx="4" cy="4" r="4" transform="translate(602 2130)" fill="#4d4d4d"/><circle cx="4" cy="4" r="4" transform="translate(602 1610)" fill="#4d4d4d"/><circle cx="4" cy="4" r="4" transform="translate(602 2026)" fill="#4d4d4d"/><circle cx="4" cy="4" r="4" transform="translate(602 1818)" fill="#4d4d4d"/><circle cx="4" cy="4" r="4" transform="translate(602 2234)" fill="#4d4d4d"/><circle cx="4" cy="4" r="4" transform="translate(602 1558)" fill="#4d4d4d"/><circle cx="4" cy="4" r="4" transform="translate(602 1974)" fill="#4d4d4d"/><circle cx="4" cy="4" r="4" transform="translate(602 1766)" fill="#4d4d4d"/><circle cx="4" cy="4" r="4" transform="translate(602 2182)" fill="#4d4d4d"/><circle cx="4" cy="4" r="4" transform="translate(602 1662)" fill="#4d4d4d"/><circle cx="4" cy="4" r="4" transform="translate(602 2078)" fill="#4d4d4d"/><circle cx="4" cy="4" r="4" transform="translate(602 1870)" fill="#4d4d4d"/><circle cx="4" cy="4" r="4" transform="translate(602 2286)" fill="#4d4d4d"/><circle cx="4" cy="4" r="4" transform="translate(422 1922)" fill="#4d4d4d"/><circle cx="4" cy="4" r="4" transform="translate(422 1714)" fill="#4d4d4d"/><circle cx="4" cy="4" r="4" transform="translate(422 2130)" fill="#4d4d4d"/><circle cx="4" cy="4" r="4" transform="translate(422 1610)" fill="#4d4d4d"/><circle cx="4" cy="4" r="4" transform="translate(422 2026)" fill="#4d4d4d"/><circle cx="4" cy="4" r="4" transform="translate(422 1818)" fill="#4d4d4d"/><circle cx="4" cy="4" r="4" transform="translate(422 2234)" fill="#4d4d4d"/><circle cx="4" cy="4" r="4" transform="translate(422 1558)" fill="#4d4d4d"/><circle cx="4" cy="4" r="4" transform="translate(422 1974)" fill="#4d4d4d"/><circle cx="4" cy="4" r="4" transform="translate(422 1766)" fill="#4d4d4d"/><circle cx="4" cy="4" r="4" transform="translate(422 2182)" fill="#4d4d4d"/><circle cx="4" cy="4" r="4" transform="translate(422 1662)" fill="#4d4d4d"/><circle cx="4" cy="4" r="4" transform="translate(422 2078)" fill="#4d4d4d"/><circle cx="4" cy="4" r="4" transform="translate(422 1870)" fill="#4d4d4d"/><circle cx="4" cy="4" r="4" transform="translate(422 2286)" fill="#4d4d4d"/><circle cx="4" cy="4" r="4" transform="translate(782 1922)" fill="#4d4d4d"/><circle cx="4" cy="4" r="4" transform="translate(782 1714)" fill="#4d4d4d"/><circle cx="4" cy="4" r="4" transform="translate(782 2130)" fill="#4d4d4d"/><circle cx="4" cy="4" r="4" transform="translate(782 1610)" fill="#4d4d4d"/><circle cx="4" cy="4" r="4" transform="translate(782 2026)" fill="#4d4d4d"/><circle cx="4" cy="4" r="4" transform="translate(782 1818)" fill="#4d4d4d"/><circle cx="4" cy="4" r="4" transform="translate(782 2234)" fill="#4d4d4d"/><circle cx="4" cy="4" r="4" transform="translate(782 1558)" fill="#4d4d4d"/><circle cx="4" cy="4" r="4" transform="translate(782 1974)" fill="#4d4d4d"/><circle cx="4" cy="4" r="4" transform="translate(782 1766)" fill="#4d4d4d"/><circle cx="4" cy="4" r="4" transform="translate(782 2182)" fill="#4d4d4d"/><circle cx="4" cy="4" r="4" transform="translate(782 1662)" fill="#4d4d4d"/><circle cx="4" cy="4" r="4" transform="translate(782 2078)" fill="#4d4d4d"/><circle cx="4" cy="4" r="4" transform="translate(782 1870)" fill="#4d4d4d"/><circle cx="4" cy="4" r="4" transform="translate(782 2286)" fill="#4d4d4d"/><circle cx="4" cy="4" r="4" transform="translate(332 1922)" fill="#4d4d4d"/><circle cx="4" cy="4" r="4" transform="translate(332 1714)" fill="#4d4d4d"/><circle cx="4" cy="4" r="4" transform="translate(332 2130)" fill="#4d4d4d"/><circle cx="4" cy="4" r="4" transform="translate(332 1610)" fill="#4d4d4d"/><circle cx="4" cy="4" r="4" transform="translate(332 2026)" fill="#4d4d4d"/><circle cx="4" cy="4" r="4" transform="translate(332 1818)" fill="#4d4d4d"/><circle cx="4" cy="4" r="4" transform="translate(332 2234)" fill="#4d4d4d"/><circle cx="4" cy="4" r="4" transform="translate(332 1558)" fill="#4d4d4d"/><circle cx="4" cy="4" r="4" transform="translate(332 1974)" fill="#4d4d4d"/><circle cx="4" cy="4" r="4" transform="translate(332 1766)" fill="#4d4d4d"/><circle cx="4" cy="4" r="4" transform="translate(332 2182)" fill="#4d4d4d"/><circle cx="4" cy="4" r="4" transform="translate(332 1662)" fill="#4d4d4d"/><circle cx="4" cy="4" r="4" transform="translate(332 2078)" fill="#4d4d4d"/><circle cx="4" cy="4" r="4" transform="translate(332 1870)" fill="#4d4d4d"/><circle cx="4" cy="4" r="4" transform="translate(332 2286)" fill="#4d4d4d"/><circle cx="4" cy="4" r="4" transform="translate(692 1922)" fill="#4d4d4d"/><circle cx="4" cy="4" r="4" transform="translate(692 1714)" fill="#4d4d4d"/><circle cx="4" cy="4" r="4" transform="translate(692 2130)" fill="#4d4d4d"/><circle cx="4" cy="4" r="4" transform="translate(692 1610)" fill="#4d4d4d"/><circle cx="4" cy="4" r="4" transform="translate(692 2026)" fill="#4d4d4d"/><circle cx="4" cy="4" r="4" transform="translate(692 1818)" fill="#4d4d4d"/><circle cx="4" cy="4" r="4" transform="translate(692 2234)" fill="#4d4d4d"/><circle cx="4" cy="4" r="4" transform="translate(692 1558)" fill="#4d4d4d"/><circle cx="4" cy="4" r="4" transform="translate(692 1974)" fill="#4d4d4d"/><circle cx="4" cy="4" r="4" transform="translate(692 1766)" fill="#4d4d4d"/><circle cx="4" cy="4" r="4" transform="translate(692 2182)" fill="#4d4d4d"/><circle cx="4" cy="4" r="4" transform="translate(692 1662)" fill="#4d4d4d"/><circle cx="4" cy="4" r="4" transform="translate(692 2078)" fill="#4d4d4d"/><circle cx="4" cy="4" r="4" transform="translate(692 1870)" fill="#4d4d4d"/><circle cx="4" cy="4" r="4" transform="translate(692 2286)" fill="#4d4d4d"/><circle cx="4" cy="4" r="4" transform="translate(512 1922)" fill="#4d4d4d"/><circle cx="4" cy="4" r="4" transform="translate(512 1714)" fill="#4d4d4d"/><circle cx="4" cy="4" r="4" transform="translate(512 2130)" fill="#4d4d4d"/><circle cx="4" cy="4" r="4" transform="translate(512 1610)" fill="#4d4d4d"/><circle cx="4" cy="4" r="4" transform="translate(512 2026)" fill="#4d4d4d"/><circle cx="4" cy="4" r="4" transform="translate(512 1818)" fill="#4d4d4d"/><circle cx="4" cy="4" r="4" transform="translate(512 2234)" fill="#4d4d4d"/><circle cx="4" cy="4" r="4" transform="translate(512 1558)" fill="#4d4d4d"/><circle cx="4" cy="4" r="4" transform="translate(512 1974)" fill="#4d4d4d"/><circle cx="4" cy="4" r="4" transform="translate(512 1766)" fill="#4d4d4d"/><circle cx="4" cy="4" r="4" transform="translate(512 2182)" fill="#4d4d4d"/><circle cx="4" cy="4" r="4" transform="translate(512 1662)" fill="#4d4d4d"/><circle cx="4" cy="4" r="4" transform="translate(512 2078)" fill="#4d4d4d"/><circle cx="4" cy="4" r="4" transform="translate(512 1870)" fill="#4d4d4d"/><circle cx="4" cy="4" r="4" transform="translate(512 2286)" fill="#4d4d4d"/><circle cx="4" cy="4" r="4" transform="translate(872 1922)" fill="#4d4d4d"/><circle cx="4" cy="4" r="4" transform="translate(872 1714)" fill="#4d4d4d"/><circle cx="4" cy="4" r="4" transform="translate(872 2130)" fill="#4d4d4d"/><circle cx="4" cy="4" r="4" transform="translate(872 1610)" fill="#4d4d4d"/><circle cx="4" cy="4" r="4" transform="translate(872 2026)" fill="#4d4d4d"/><circle cx="4" cy="4" r="4" transform="translate(872 1818)" fill="#4d4d4d"/><circle cx="4" cy="4" r="4" transform="translate(872 2234)" fill="#4d4d4d"/><circle cx="4" cy="4" r="4" transform="translate(872 1558)" fill="#4d4d4d"/><circle cx="4" cy="4" r="4" transform="translate(872 1974)" fill="#4d4d4d"/><circle cx="4" cy="4" r="4" transform="translate(872 1766)" fill="#4d4d4d"/><circle cx="4" cy="4" r="4" transform="translate(872 2182)" fill="#4d4d4d"/><circle cx="4" cy="4" r="4" transform="translate(872 1662)" fill="#4d4d4d"/><circle cx="4" cy="4" r="4" transform="translate(872 2078)" fill="#4d4d4d"/><circle cx="4" cy="4" r="4" transform="translate(872 1870)" fill="#4d4d4d"/><circle cx="4" cy="4" r="4" transform="translate(872 2286)" fill="#4d4d4d"/><circle cx="4" cy="4" r="4" transform="translate(287 1922)" fill="#4d4d4d"/><circle cx="4" cy="4" r="4" transform="translate(287 1714)" fill="#4d4d4d"/><circle cx="4" cy="4" r="4" transform="translate(287 2130)" fill="#4d4d4d"/><circle cx="4" cy="4" r="4" transform="translate(287 1610)" fill="#4d4d4d"/><circle cx="4" cy="4" r="4" transform="translate(287 2026)" fill="#4d4d4d"/><circle cx="4" cy="4" r="4" transform="translate(287 1818)" fill="#4d4d4d"/><circle cx="4" cy="4" r="4" transform="translate(287 2234)" fill="#4d4d4d"/><circle cx="4" cy="4" r="4" transform="translate(287 1558)" fill="#4d4d4d"/><circle cx="4" cy="4" r="4" transform="translate(287 1974)" fill="#4d4d4d"/><circle cx="4" cy="4" r="4" transform="translate(287 1766)" fill="#4d4d4d"/><circle cx="4" cy="4" r="4" transform="translate(287 2182)" fill="#4d4d4d"/><circle cx="4" cy="4" r="4" transform="translate(287 1662)" fill="#4d4d4d"/><circle cx="4" cy="4" r="4" transform="translate(287 2078)" fill="#4d4d4d"/><circle cx="4" cy="4" r="4" transform="translate(287 1870)" fill="#4d4d4d"/><circle cx="4" cy="4" r="4" transform="translate(287 2286)" fill="#4d4d4d"/><circle cx="4" cy="4" r="4" transform="translate(647 1922)" fill="#4d4d4d"/><circle cx="4" cy="4" r="4" transform="translate(647 1714)" fill="#4d4d4d"/><circle cx="4" cy="4" r="4" transform="translate(647 2130)" fill="#4d4d4d"/><circle cx="4" cy="4" r="4" transform="translate(647 1610)" fill="#4d4d4d"/><circle cx="4" cy="4" r="4" transform="translate(647 2026)" fill="#4d4d4d"/><circle cx="4" cy="4" r="4" transform="translate(647 1818)" fill="#4d4d4d"/><circle cx="4" cy="4" r="4" transform="translate(647 2234)" fill="#4d4d4d"/><circle cx="4" cy="4" r="4" transform="translate(647 1558)" fill="#4d4d4d"/><circle cx="4" cy="4" r="4" transform="translate(647 1974)" fill="#4d4d4d"/><circle cx="4" cy="4" r="4" transform="translate(647 1766)" fill="#4d4d4d"/><circle cx="4" cy="4" r="4" transform="translate(647 2182)" fill="#4d4d4d"/><circle cx="4" cy="4" r="4" transform="translate(647 1662)" fill="#4d4d4d"/><circle cx="4" cy="4" r="4" transform="translate(647 2078)" fill="#4d4d4d"/><circle cx="4" cy="4" r="4" transform="translate(647 1870)" fill="#4d4d4d"/><circle cx="4" cy="4" r="4" transform="translate(647 2286)" fill="#4d4d4d"/><circle cx="4" cy="4" r="4" transform="translate(467 1922)" fill="#4d4d4d"/><circle cx="4" cy="4" r="4" transform="translate(467 1714)" fill="#4d4d4d"/><circle cx="4" cy="4" r="4" transform="translate(467 2130)" fill="#4d4d4d"/><circle cx="4" cy="4" r="4" transform="translate(467 1610)" fill="#4d4d4d"/><circle cx="4" cy="4" r="4" transform="translate(467 2026)" fill="#4d4d4d"/><circle cx="4" cy="4" r="4" transform="translate(467 1818)" fill="#4d4d4d"/><circle cx="4" cy="4" r="4" transform="translate(467 2234)" fill="#4d4d4d"/><circle cx="4" cy="4" r="4" transform="translate(467 1558)" fill="#4d4d4d"/><circle cx="4" cy="4" r="4" transform="translate(467 1974)" fill="#4d4d4d"/><circle cx="4" cy="4" r="4" transform="translate(467 1766)" fill="#4d4d4d"/><circle cx="4" cy="4" r="4" transform="translate(467 2182)" fill="#4d4d4d"/><circle cx="4" cy="4" r="4" transform="translate(467 1662)" fill="#4d4d4d"/><circle cx="4" cy="4" r="4" transform="translate(467 2078)" fill="#4d4d4d"/><circle cx="4" cy="4" r="4" transform="translate(467 1870)" fill="#4d4d4d"/><circle cx="4" cy="4" r="4" transform="translate(467 2286)" fill="#4d4d4d"/><circle cx="4" cy="4" r="4" transform="translate(827 1922)" fill="#4d4d4d"/><circle cx="4" cy="4" r="4" transform="translate(827 1714)" fill="#4d4d4d"/><circle cx="4" cy="4" r="4" transform="translate(827 2130)" fill="#4d4d4d"/><circle cx="4" cy="4" r="4" transform="translate(827 1610)" fill="#4d4d4d"/><circle cx="4" cy="4" r="4" transform="translate(827 2026)" fill="#4d4d4d"/><circle cx="4" cy="4" r="4" transform="translate(827 1818)" fill="#4d4d4d"/><circle cx="4" cy="4" r="4" transform="translate(827 2234)" fill="#4d4d4d"/><circle cx="4" cy="4" r="4" transform="translate(827 1558)" fill="#4d4d4d"/><circle cx="4" cy="4" r="4" transform="translate(827 1974)" fill="#4d4d4d"/><circle cx="4" cy="4" r="4" transform="translate(827 1766)" fill="#4d4d4d"/><circle cx="4" cy="4" r="4" transform="translate(827 2182)" fill="#4d4d4d"/><circle cx="4" cy="4" r="4" transform="translate(827 1662)" fill="#4d4d4d"/><circle cx="4" cy="4" r="4" transform="translate(827 2078)" fill="#4d4d4d"/><circle cx="4" cy="4" r="4" transform="translate(827 1870)" fill="#4d4d4d"/><circle cx="4" cy="4" r="4" transform="translate(827 2286)" fill="#4d4d4d"/><circle cx="4" cy="4" r="4" transform="translate(377 1922)" fill="#4d4d4d"/><circle cx="4" cy="4" r="4" transform="translate(377 1714)" fill="#4d4d4d"/><circle cx="4" cy="4" r="4" transform="translate(377 2130)" fill="#4d4d4d"/><circle cx="4" cy="4" r="4" transform="translate(377 1610)" fill="#4d4d4d"/><circle cx="4" cy="4" r="4" transform="translate(377 2026)" fill="#4d4d4d"/><circle cx="4" cy="4" r="4" transform="translate(377 1818)" fill="#4d4d4d"/><circle cx="4" cy="4" r="4" transform="translate(377 2234)" fill="#4d4d4d"/><circle cx="4" cy="4" r="4" transform="translate(377 1558)" fill="#4d4d4d"/><circle cx="4" cy="4" r="4" transform="translate(377 1974)" fill="#4d4d4d"/><circle cx="4" cy="4" r="4" transform="translate(377 1766)" fill="#4d4d4d"/><circle cx="4" cy="4" r="4" transform="translate(377 2182)" fill="#4d4d4d"/><circle cx="4" cy="4" r="4" transform="translate(377 1662)" fill="#4d4d4d"/><circle cx="4" cy="4" r="4" transform="translate(377 2078)" fill="#4d4d4d"/><circle cx="4" cy="4" r="4" transform="translate(377 1870)" fill="#4d4d4d"/><circle cx="4" cy="4" r="4" transform="translate(377 2286)" fill="#4d4d4d"/><circle cx="4" cy="4" r="4" transform="translate(737 1922)" fill="#4d4d4d"/><circle cx="4" cy="4" r="4" transform="translate(737 1714)" fill="#4d4d4d"/><circle cx="4" cy="4" r="4" transform="translate(737 2130)" fill="#4d4d4d"/><circle cx="4" cy="4" r="4" transform="translate(737 1610)" fill="#4d4d4d"/><circle cx="4" cy="4" r="4" transform="translate(737 2026)" fill="#4d4d4d"/><circle cx="4" cy="4" r="4" transform="translate(737 1818)" fill="#4d4d4d"/><circle cx="4" cy="4" r="4" transform="translate(737 2234)" fill="#4d4d4d"/><circle cx="4" cy="4" r="4" transform="translate(737 1558)" fill="#4d4d4d"/><circle cx="4" cy="4" r="4" transform="translate(737 1974)" fill="#4d4d4d"/><circle cx="4" cy="4" r="4" transform="translate(737 1766)" fill="#4d4d4d"/><circle cx="4" cy="4" r="4" transform="translate(737 2182)" fill="#4d4d4d"/><circle cx="4" cy="4" r="4" transform="translate(737 1662)" fill="#4d4d4d"/><circle cx="4" cy="4" r="4" transform="translate(737 2078)" fill="#4d4d4d"/><circle cx="4" cy="4" r="4" transform="translate(737 1870)" fill="#4d4d4d"/><circle cx="4" cy="4" r="4" transform="translate(737 2286)" fill="#4d4d4d"/><circle cx="4" cy="4" r="4" transform="translate(557 1922)" fill="#4d4d4d"/><circle cx="4" cy="4" r="4" transform="translate(557 1714)" fill="#4d4d4d"/><circle cx="4" cy="4" r="4" transform="translate(557 2130)" fill="#4d4d4d"/><circle cx="4" cy="4" r="4" transform="translate(557 1610)" fill="#4d4d4d"/><circle cx="4" cy="4" r="4" transform="translate(557 2026)" fill="#4d4d4d"/><circle cx="4" cy="4" r="4" transform="translate(557 1818)" fill="#4d4d4d"/><circle cx="4" cy="4" r="4" transform="translate(557 2234)" fill="#4d4d4d"/><circle cx="4" cy="4" r="4" transform="translate(557 1558)" fill="#4d4d4d"/><circle cx="4" cy="4" r="4" transform="translate(557 1974)" fill="#4d4d4d"/><circle cx="4" cy="4" r="4" transform="translate(557 1766)" fill="#4d4d4d"/><circle cx="4" cy="4" r="4" transform="translate(557 2182)" fill="#4d4d4d"/><circle cx="4" cy="4" r="4" transform="translate(557 1662)" fill="#4d4d4d"/><circle cx="4" cy="4" r="4" transform="translate(557 2078)" fill="#4d4d4d"/><circle cx="4" cy="4" r="4" transform="translate(557 1870)" fill="#4d4d4d"/><circle cx="4" cy="4" r="4" transform="translate(557 2286)" fill="#4d4d4d"/><circle cx="4" cy="4" r="4" transform="translate(917 1922)" fill="#4d4d4d"/><circle cx="4" cy="4" r="4" transform="translate(917 1714)" fill="#4d4d4d"/><circle cx="4" cy="4" r="4" transform="translate(917 2130)" fill="#4d4d4d"/><circle cx="4" cy="4" r="4" transform="translate(917 1610)" fill="#4d4d4d"/><circle cx="4" cy="4" r="4" transform="translate(917 2026)" fill="#4d4d4d"/><circle cx="4" cy="4" r="4" transform="translate(917 1818)" fill="#4d4d4d"/><circle cx="4" cy="4" r="4" transform="translate(917 2234)" fill="#4d4d4d"/><circle cx="4" cy="4" r="4" transform="translate(917 1558)" fill="#4d4d4d"/><circle cx="4" cy="4" r="4" transform="translate(917 1974)" fill="#4d4d4d"/><circle cx="4" cy="4" r="4" transform="translate(917 1766)" fill="#4d4d4d"/><circle cx="4" cy="4" r="4" transform="translate(917 2182)" fill="#4d4d4d"/><circle cx="4" cy="4" r="4" transform="translate(917 1662)" fill="#4d4d4d"/><circle cx="4" cy="4" r="4" transform="translate(917 2078)" fill="#4d4d4d"/><circle cx="4" cy="4" r="4" transform="translate(917 1870)" fill="#4d4d4d"/><circle cx="4" cy="4" r="4" transform="translate(917 2286)" fill="#4d4d4d"/></g></svg>